<?xml version="1.0" standalone="no"?> <!DOCTYPE svg PUBLIC "-//W3C//DTD SVG 1.1//EN" "http://www.w3.org/Graphics/SVG/1.1/DTD/svg11.dtd">  <svg id="svg" width="744.0945" height="1052.362"> 	<text x="70.86614" y="103.29921" font-size="12" fill="#252525" >chloroplast</text><text x="70.86614" y="298.181095" font-size="12" fill="#252525" >mitochondrion</text><text x="396.5220375" y="85.039368" font-size="9" fill="black" >I</text> <text x="396.5220375" y="310.0393625" font-size="9" fill="black" >I</text><path d="M 351.578181248232 106.29921 Q 351.578181248232 159.448815 469.925686387893 194.881885 T 588.273191527554 283.46456 L 586.299042049905 283.46456 Q 586.299042049905 230.314955 472.274122146052 194.881885 T 358.2492022422 106.29921 Z" stroke="#0080cc" fill="#0080cc" style="stroke-width: 0.5px;"/> <path d="M 408.868759164499 106.29921 Q 408.868759164499 159.448815 293.622633642009 194.881885 T 178.376508119519 283.46456 L 178.891664772948 283.46456 Q 178.891664772948 230.314955 294.705212999599 194.881885 T 410.518761226251 106.29921 Z" stroke="#e64e60" fill="#e64e60" style="stroke-width: 0.5px;"/> <path d="M 401.111660864061 106.29921 Q 401.111660864061 159.448815 485.023046995833 194.881885 T 568.934433127605 283.46456 L 569.330992565856 283.46456 Q 569.330992565856 230.314955 485.887593370274 194.881885 T 402.444194174691 106.29921 Z" stroke="#e64e60" fill="#e64e60" style="stroke-width: 0.5px;"/> <path d="M 554.010459512922 106.29921 Q 554.010459512922 159.448815 544.635965621803 194.881885 T 535.261471730684 283.46456 L 536.321434341337 283.46456 Q 536.321434341337 230.314955 546.968417533828 194.881885 T 557.615400726319 106.29921 Z" stroke="#0ab276" fill="#0ab276" style="stroke-width: 0.5px;"/> <path d="M 275.147579415644 106.29921 Q 275.147579415644 159.448815 239.20301517851 194.881885 T 203.258450941377 283.46456 L 203.440052927118 283.46456 Q 203.440052927118 230.314955 239.594576040865 194.881885 T 275.749099154611 106.29921 Z" stroke="#0080cc" fill="#0080cc" style="stroke-width: 0.5px;"/> <path d="M 124.220428800065 106.29921 Q 124.220428800065 159.448815 375.307606340685 194.881885 T 626.394783881305 283.46456 L 626.503497995218 283.46456 Q 626.503497995218 230.314955 375.547849705864 194.881885 T 124.592201416511 106.29921 Z" stroke="#0080cc" fill="#0080cc" style="stroke-width: 0.5px;"/> <path d="M 587.465817772593 106.29921 Q 587.465817772593 159.448815 615.636077653603 194.881885 T 643.806337534612 283.46456 L 643.702564971332 283.46456 Q 643.702564971332 230.314955 615.761723239366 194.881885 T 587.8208815074 106.29921 Z" stroke="#0080cc" fill="#0080cc" style="stroke-width: 0.5px;"/> <path d="M 256.592366356653 106.29921 Q 256.592366356653 159.448815 427.662792592684 194.881885 T 598.733218828714 283.46456 L 598.835756004337 283.46456 Q 598.835756004337 230.314955 427.887415827489 194.881885 T 256.939075650641 106.29921 Z" stroke="#0080cc" fill="#0080cc" style="stroke-width: 0.5px;"/> <path d="M 349.222228937275 106.29921 Q 349.222228937275 159.448815 238.426359112442 194.881885 T 127.63048928761 283.46456 L 127.726849524942 283.46456 Q 127.726849524942 230.314955 238.637450827079 194.881885 T 349.548052129216 106.29921 Z" stroke="#0080cc" fill="#0080cc" style="stroke-width: 0.5px;"/> <path d="M 565.105156920549 106.29921 Q 565.105156920549 159.448815 412.738407341849 194.881885 T 260.371657763149 283.46456 L 260.296299116005 283.46456 Q 260.296299116005 230.314955 412.828133240767 194.881885 T 565.359967365529 106.29921 Z" stroke="#0080cc" fill="#0080cc" style="stroke-width: 0.5px;"/> <path d="M 492.488357321833 106.29921 Q 492.488357321833 159.448815 456.515865560523 194.881885 T 420.543373799214 283.46456 L 420.639734036546 283.46456 Q 420.639734036546 230.314955 456.718602834341 194.881885 T 492.797471632136 106.29921 Z" stroke="#e64e60" fill="#e64e60" style="stroke-width: 0.5px;"/> <path d="M 167.312634544449 106.29921 Q 167.312634544449 159.448815 184.827831615585 194.881885 T 202.343028686722 283.46456 L 202.305967056979 283.46456 Q 202.305967056979 230.314955 184.871959106856 194.881885 T 167.437951156733 106.29921 Z" stroke="#0080cc" fill="#0080cc" style="stroke-width: 0.5px;"/> <path d="M 400.961280929319 106.29921 Q 400.961280929319 159.448815 484.915736949351 194.881885 T 568.870192969384 283.46456 L 568.909725374443 283.46456 Q 568.909725374443 230.314955 485.000250068228 194.881885 T 401.090774762013 106.29921 Z" stroke="#0080cc" fill="#0080cc" style="stroke-width: 0.5px;"/><rect x="124.015745" y="88.582675" rx="2" ry="2" width="549.212585" height="17.71654" style="fill:#f7f7f7;stroke:black;stroke-width:0.5"/> <rect x="124.015745" y="283.46456" rx="2" ry="2" width="549.212585" height="17.71654" style="fill:#f7f7f7;stroke:black;stroke-width:0.5"/><rect x="124.015745" y="91.582675" rx="2" ry="2" width="549.212585" height="11.71654" style="fill:#FF9D1E;stroke:#FF9D1E;stroke-width:0.5"/> <rect x="124.015745" y="286.46456" rx="2" ry="2" width="549.212585" height="11.71654" style="fill:#FF9D1E;stroke:#FF9D1E;stroke-width:0.5"/></svg>